<svg width="1728" height="93" viewBox="0 0 1728 93" fill="none" xmlns="http://www.w3.org/2000/svg">
<path d="M-0.243866 -5.58155L-0.282318 -4.58229L-0.263092 -4.58155H-0.243866L1727.74 -4.58155L1727.91 -4.55972L1728.61 -4.4713L1731.35 -4.12321C1733.76 -3.81665 1737.31 -3.36324 1741.9 -2.77589C1751.06 -1.60118 1764.33 0.10932 1780.76 2.25242C1813.62 6.53863 1859.12 12.5552 1909.68 19.4766C2010.8 33.3203 2132.12 50.7812 2212.99 65.2561C2253.47 72.5014 2283.7 78.9794 2296.23 83.8582C2297.78 84.4641 2299.04 85.036 2300 85.5701C2300.97 86.1144 2301.56 86.5784 2301.86 86.9406C2302 87.1146 2302.04 87.2232 2302.04 87.2674C2302.05 87.2937 2302.05 87.3041 2302.04 87.3327C2301.98 87.449 2301.73 87.7467 2300.92 88.1159C2299.33 88.8319 2296.39 89.4821 2291.85 90.0066C2287.35 90.5271 2281.38 90.914 2273.81 91.1518C2213.2 93.0559 2051.47 85.3792 1727.88 61.5027C1080.71 13.7515 928.057 23.0125 797.463 34.9635C791.177 35.5387 784.942 36.1202 778.705 36.7019C655.522 48.1905 531.703 59.7384 -0.177734 24.4861C-279.613 5.96555 -419.294 -5.23424 -471.653 -11.615C-484.387 -13.1669 -491.845 -14.4226 -494.913 -15.4011C-494.814 -15.4218 -494.71 -15.4427 -494.599 -15.4636C-493.765 -15.6217 -492.671 -15.7692 -491.321 -15.9049C-480.474 -16.9949 -454.341 -17.2023 -419.393 -16.8287C-349.549 -16.082 -244.774 -13.0206 -157.454 -10.1455C-113.795 -8.70805 -74.5017 -7.31723 -46.1234 -6.28578C-31.9343 -5.77006 -20.4739 -5.34418 -12.5608 -5.04723C-8.60428 -4.89876 -5.53458 -4.78252 -3.45404 -4.7034C-2.41379 -4.66384 -1.62082 -4.63356 -1.08795 -4.61317L-0.48526 -4.59008L-0.333221 -4.58424L-0.295074 -4.58278C-0.28656 -4.58245 -0.282318 -4.58229 -0.243866 -5.58155ZM-496.21 -14.9969C-496.21 -14.997 -496.207 -15.0001 -496.198 -15.0059C-496.205 -14.9997 -496.21 -14.9968 -496.21 -14.9969Z" fill="#0079B8" stroke="#0079B8" stroke-width="2"/>
</svg>
