<?xml version="1.0" encoding="UTF-8" standalone="no"?>
<!-- Created with Inkscape (http://www.inkscape.org/) -->

<svg
   width="210mm"
   height="297mm"
   viewBox="0 0 161.53846 228.46154"
   version="1.1"
   id="svg291"
   xml:space="preserve"
   sodipodi:docname="background-corners.svg"
   inkscape:version="1.2.2 (732a01da63, 2022-12-09)"
   xmlns:inkscape="http://www.inkscape.org/namespaces/inkscape"
   xmlns:sodipodi="http://sodipodi.sourceforge.net/DTD/sodipodi-0.dtd"
   xmlns="http://www.w3.org/2000/svg"
   xmlns:svg="http://www.w3.org/2000/svg"><sodipodi:namedview
     id="namedview293"
     pagecolor="#ffffff"
     bordercolor="#000000"
     borderopacity="0.25"
     inkscape:showpageshadow="2"
     inkscape:pageopacity="0.0"
     inkscape:pagecheckerboard="0"
     inkscape:deskcolor="#d1d1d1"
     inkscape:document-units="mm"
     showgrid="false"
     inkscape:zoom="0.52724989"
     inkscape:cx="417.25945"
     inkscape:cy="737.79058"
     inkscape:window-width="1920"
     inkscape:window-height="1017"
     inkscape:window-x="-8"
     inkscape:window-y="-8"
     inkscape:window-maximized="1"
     inkscape:current-layer="layer1" /><defs
     id="defs288"><clipPath
       clipPathUnits="userSpaceOnUse"
       id="clipPath417"><rect
         style="fill:none;stroke-width:0.264583"
         id="rect419"
         width="359.09677"
         height="360.51614"
         x="-313.67743"
         y="-56.774193" /></clipPath><clipPath
       clipPathUnits="userSpaceOnUse"
       id="clipPath421"><rect
         style="fill:none;stroke-width:0.264583"
         id="rect423"
         width="359.09677"
         height="360.51614"
         x="-313.67743"
         y="-56.774193" /></clipPath><clipPath
       clipPathUnits="userSpaceOnUse"
       id="clipPath425"><rect
         style="fill:none;stroke-width:0.264583"
         id="rect427"
         width="359.09677"
         height="360.51614"
         x="-313.67743"
         y="-56.774193" /></clipPath><clipPath
       clipPathUnits="userSpaceOnUse"
       id="clipPath429"><rect
         style="fill:none;stroke-width:0.264583"
         id="rect431"
         width="359.09677"
         height="360.51614"
         x="-313.67743"
         y="-56.774193" /></clipPath><clipPath
       clipPathUnits="userSpaceOnUse"
       id="clipPath437"><rect
         style="fill:none;stroke-width:0.264583"
         id="rect439"
         width="444.25806"
         height="330.70969"
         x="25.548388"
         y="366.19354" /></clipPath></defs><g
     inkscape:label="Layer 1"
     inkscape:groupmode="layer"
     id="layer1"><path
       fill="#047cbc"
       d="m 50.370676,-41.014719 c 1.15589,1.294396 25.3497,26.90129 25.41687,26.90129 0.041,0 0.58247,-0.892123 1.20327,-1.982561 1.11674,-1.960958 1.13033,-1.975166 1.25025,-1.313663 0.0666,0.367826 0.35192,2.137281 0.63398,3.932037 l 0.51304,3.263139 21.995164,23.32618 c 12.15986,12.895701 22.05162,23.228481 22.12105,23.107431 0.0692,-0.12027 4.23907,-11.8074 9.26665,-25.971216 5.02758,-14.1638189 9.16609,-25.680265 9.19679,-25.592103 0.0307,0.08816 -3.00344,12.8501541 -6.74265,28.359748 -3.73922,15.509791 -6.79849,28.325881 -6.79849,28.480221 0,0.15452 4.42717,4.97265 9.83839,10.70722 5.41123,5.73439 9.89981,10.51398 9.9746,10.62121 0.0843,0.12067 0.87031,-0.0681 2.0604,-0.49452 1.05843,-0.3793 1.9477,-0.67084 1.97654,-0.64769 0.0288,0.0229 -0.23674,0.93592 -0.58989,2.0285 -0.63049,1.94967 -0.63522,1.99482 -0.25838,2.41422 1.35224,1.50555 3.4452,3.64167 3.568,3.64167 0.0804,0 6.9526,-5.51058 15.27207,-12.24568 8.31928,-6.7351 15.16886,-12.2052 15.2212,-12.15576 0.0526,0.0494 -5.38197,5.27548 -12.07641,11.61317 l -12.1718,11.52326 0.20294,3.14909 c 0.19884,3.0839 0.19368,3.16155 -0.2491,3.74891 l -0.45225,0.6 0.47945,0.53558 c 0.26394,0.29465 18.54091,19.68646 40.6156,43.093006 38.79977,41.14063 40.16808,42.56619 41.10494,42.8227 0.53303,0.14596 12.25442,3.326 26.04776,7.06692 13.79333,3.74073 24.96584,6.82404 24.82779,6.85168 -0.13804,0.0277 -10.72807,-2.00086 -23.53345,-4.50772 -12.80537,-2.50685 -23.30681,-4.53515 -23.33669,-4.5077 -0.1436,0.13331 24.0092,25.59969 24.36689,25.69213 0.22664,0.0585 2.77639,0.31489 5.66609,0.56984 2.88971,0.25494 4.74407,0.47934 4.1208,0.4988 -3.97677,0.12378 -8.26322,0.35654 -8.36645,0.45423 -0.067,0.0633 1.30114,1.62175 3.04032,3.4636 l 3.16189,3.34857 0.31854,-0.99799 0.31854,-0.99799 0.50417,1.87182 0.50419,1.87182 9.42673,9.9926 9.42673,9.9924 0.0543,13.48267 c 0.0299,7.41528 0.0769,-43.31897 0.10447,-112.74285 0.0276,-69.424076 -0.0115,-135.04145 -0.087,-145.816601 l -0.13698,-19.59129 H 49.888746 l 0.48193,0.539672 M -249.65645,117.50315 V 250.17612 H 0.51872585 l -0.79407,-0.87442 c -0.43681,-0.48089 -6.40351995,-6.81839 -13.25948985,-14.08305 l -12.46541,-13.20864 -1.16784,2.05516 c -1.153,2.02946 -1.16927,2.04678 -1.28939,1.3843 -0.067,-0.36899 -0.35356,-2.14681 -0.63729,-3.95071 -0.48707,-3.09908 -0.55238,-3.32016 -1.18287,-4.00989 -6.78901,-7.42405 -43.338618,-45.87078 -43.437098,-45.69154 -0.0727,0.13195 -4.24545,11.82881 -9.27303,25.99263 -5.02758,14.16382 -9.1661,25.68026 -9.19679,25.5921 -0.0307,-0.0882 3.00344,-12.85016 6.74265,-28.35975 3.73921,-15.50978 6.79849,-28.34009 6.79849,-28.51194 0,-0.28122 -19.57996,-21.25448 -19.9634,-21.3841 -0.088,-0.0298 -0.98673,0.24483 -1.997148,0.61013 -1.01042,0.3653 -1.86116,0.64418 -1.89062,0.61966 -0.0294,-0.0243 0.22541,-0.90088 0.56661,-1.94772 0.34099,-1.04665 0.62017,-1.98762 0.62017,-2.09077 0,-0.10315 -0.80128,-1.03381 -1.78079,-2.0682 a 933.27795,881.53607 0 0 1 -1.91102,-2.02167 c -0.0717,-0.0777 -6.98867,5.41093 -15.37099,12.19682 -8.38231,6.7861 -15.28362,12.29783 -15.33595,12.2484 -0.0523,-0.0494 5.38217,-5.27547 12.07661,-11.61317 l 12.1718,-11.52326 -0.20294,-3.14909 c -0.19925,-3.08974 -0.19451,-3.16057 0.25239,-3.75318 0.39004,-0.51729 0.41558,-0.65158 0.17864,-0.93436 -1.22017,-1.45593 -80.67241,-85.557416 -81.01341,-85.753976 -0.24375,-0.14031 -12.05291,-3.39878 -26.24308,-7.2411 -14.18997,-3.84232 -25.68699,-7.00854 -25.54894,-7.03618 0.13825,-0.0276 10.72828,2.00085 23.53366,4.50771 12.80537,2.50686 23.31444,4.52815 23.35338,4.49176 0.0389,-0.0362 -5.37393,-5.83928 -12.0286,-12.8955 l -12.09949,-12.829527 -5.5878,-0.467274 c -6.02522,-0.503669 -5.929,-0.650604 0.49037,-0.748497 1.18988,-0.0181 2.50154,-0.09361 2.91465,-0.16776 l 0.75122,-0.134674 -3.2237,-3.4285639 -3.2237,-3.428563 -0.31462,1.055407 -0.31463,1.055406 -0.50912,-1.908412 -0.50933,-1.908412 -9.14796,-9.730838 c -5.03129,-5.3519601 -9.27324,-9.8590901 -9.42653,-10.0157561 -0.23427,-0.239573 -0.27877,20.8681711 -0.27877,132.38804"
       fill-rule="evenodd"
       id="path394"
       style="stroke-width:0.200247"
       clip-path="url(#clipPath421)"
       transform="matrix(0.45056244,0,0,0.45056244,112.33526,116.11676)" /><path
       fill="#047cbc"
       d="m 64.564224,379.11431 c 1.15589,1.2944 25.3497,26.90129 25.41687,26.90129 0.041,0 0.58247,-0.89212 1.20327,-1.98256 1.11674,-1.96096 1.13033,-1.97516 1.25025,-1.31366 0.0666,0.36782 0.35192,2.13728 0.63398,3.93204 l 0.51304,3.26313 21.995166,23.32618 c 12.15986,12.89571 22.05162,23.22849 22.12105,23.10744 0.0692,-0.12027 4.23907,-11.8074 9.26665,-25.97122 5.02758,-14.16382 9.16609,-25.68027 9.19679,-25.5921 0.0307,0.0882 -3.00344,12.85015 -6.74265,28.35974 -3.73922,15.5098 -6.79849,28.32589 -6.79849,28.48023 0,0.15452 4.42717,4.97265 9.83839,10.70722 5.41123,5.73439 9.89981,10.51398 9.9746,10.62121 0.0843,0.12067 0.87031,-0.0681 2.0604,-0.49452 1.05843,-0.3793 1.9477,-0.67084 1.97654,-0.64769 0.0288,0.0229 -0.23674,0.93592 -0.58989,2.0285 -0.63049,1.94967 -0.63522,1.99482 -0.25838,2.41422 1.35224,1.50555 3.4452,3.64167 3.568,3.64167 0.0804,0 6.9526,-5.51058 15.27207,-12.24568 8.31928,-6.7351 15.16886,-12.2052 15.2212,-12.15576 0.0526,0.0494 -5.38197,5.27548 -12.07641,11.61317 l -12.1718,11.52326 0.20294,3.14909 c 0.19884,3.0839 0.19368,3.16155 -0.2491,3.74891 l -0.45225,0.6 0.47945,0.53558 c 0.26394,0.29465 18.54091,19.68646 40.6156,43.093 38.79977,41.14063 40.16808,42.56619 41.10494,42.8227 0.53303,0.14596 12.25442,3.326 26.04776,7.06692 13.79333,3.74073 24.96584,6.82404 24.82779,6.85168 -0.13804,0.0277 -10.72807,-2.00086 -23.53345,-4.50772 -12.80537,-2.50685 -23.30681,-4.53515 -23.33669,-4.5077 -0.1436,0.13331 24.0092,25.59969 24.36689,25.69213 0.22664,0.0585 2.77639,0.31489 5.66609,0.56984 2.88971,0.25494 4.74407,0.47934 4.1208,0.4988 -3.97677,0.12378 -8.26322,0.35654 -8.36645,0.45423 -0.067,0.0633 1.30114,1.62175 3.04032,3.4636 l 3.16189,3.34857 0.31854,-0.99799 0.31854,-0.99799 0.50417,1.87182 0.50419,1.87182 9.42673,9.9926 9.42673,9.9924 0.0543,13.48267 c 0.0299,7.41528 0.0769,-43.31897 0.10447,-112.74285 0.0276,-69.42407 -0.0115,-135.04145 -0.087,-145.8166 l -0.13698,-19.59129 H 64.082294 l 0.48193,0.53967 M -235.4629,537.63218 V 670.30515 H 14.712274 l -0.79407,-0.87442 c -0.43681,-0.48089 -6.4035197,-6.81839 -13.25948963,-14.08305 l -12.46541037,-13.20864 -1.16784,2.05516 c -1.153,2.02946 -1.16927,2.04678 -1.28939,1.3843 -0.067,-0.36899 -0.35356,-2.14681 -0.63729,-3.95071 -0.48707,-3.09908 -0.55238,-3.32016 -1.18287,-4.00989 -6.78901,-7.42405 -43.338618,-45.87078 -43.437098,-45.69154 -0.0727,0.13195 -4.24545,11.82881 -9.27303,25.99263 -5.02758,14.16382 -9.1661,25.68026 -9.19679,25.5921 -0.0307,-0.0882 3.00344,-12.85016 6.74265,-28.35975 3.73921,-15.50978 6.79849,-28.34009 6.79849,-28.51194 0,-0.28122 -19.57996,-21.25448 -19.9634,-21.3841 -0.088,-0.0298 -0.98673,0.24483 -1.997148,0.61013 -1.01042,0.3653 -1.86116,0.64418 -1.89062,0.61966 -0.0294,-0.0243 0.22541,-0.90088 0.56661,-1.94772 0.34099,-1.04665 0.62017,-1.98762 0.62017,-2.09077 0,-0.10315 -0.80128,-1.03381 -1.78079,-2.0682 a 933.27795,881.53607 0 0 1 -1.91102,-2.02167 c -0.0717,-0.0777 -6.98867,5.41093 -15.370988,12.19682 -8.38231,6.7861 -15.28362,12.29783 -15.33595,12.2484 -0.0523,-0.0494 5.38217,-5.27547 12.07661,-11.61317 l 12.171798,-11.52326 -0.20294,-3.14909 c -0.19925,-3.08974 -0.19451,-3.16057 0.25239,-3.75318 0.39004,-0.51729 0.41558,-0.65158 0.17864,-0.93436 -1.22017,-1.45593 -80.672408,-85.55741 -81.013408,-85.75397 -0.24375,-0.14031 -12.05291,-3.39878 -26.24308,-7.2411 -14.18997,-3.84232 -25.68699,-7.00854 -25.54894,-7.03618 0.13825,-0.0276 10.72828,2.00085 23.53366,4.50771 12.80537,2.50686 23.31444,4.52815 23.35338,4.49176 0.0389,-0.0362 -5.37393,-5.83928 -12.0286,-12.8955 l -12.09949,-12.82953 -5.5878,-0.46728 c -6.02522,-0.50366 -5.929,-0.6506 0.49037,-0.74849 1.18988,-0.0181 2.50154,-0.0936 2.91465,-0.16776 l 0.75122,-0.13468 -3.2237,-3.42856 -3.2237,-3.42856 -0.31462,1.0554 -0.31463,1.05541 -0.50912,-1.90841 -0.50933,-1.90841 -9.14796,-9.73084 c -5.03129,-5.35196 -9.27324,-9.85909 -9.42653,-10.01576 -0.23427,-0.23957 -0.27877,20.86817 -0.27877,132.38804"
       fill-rule="evenodd"
       id="path409"
       style="stroke-width:0.200247"
       clip-path="url(#clipPath437)"
       transform="matrix(0.46169838,0,0,0.46169838,17.502947,-174.96706)" /><rect
       style="fill:none;stroke-width:0.264583"
       id="rect411"
       width="349.16129"
       height="346.3226"
       x="-317.93546"
       y="-56.774193"
       clip-path="url(#clipPath417)"
       transform="translate(-451.35484,126.32258)" /></g></svg>
