<?xml version="1.0" encoding="UTF-8" standalone="no"?>
<svg
   viewBox="0 0 1934 3440"
   version="1.1"
   id="svg12"
   sodipodi:docname="backgroundImage-large.svg"
   width="1934"
   height="3440"
   inkscape:version="1.2.2 (732a01da63, 2022-12-09)"
   xmlns:inkscape="http://www.inkscape.org/namespaces/inkscape"
   xmlns:sodipodi="http://sodipodi.sourceforge.net/DTD/sodipodi-0.dtd"
   xmlns="http://www.w3.org/2000/svg"
   xmlns:svg="http://www.w3.org/2000/svg">
  <defs
     id="defs16" />
  <sodipodi:namedview
     id="namedview14"
     pagecolor="#ffffff"
     bordercolor="#000000"
     borderopacity="0.25"
     inkscape:showpageshadow="2"
     inkscape:pageopacity="0.0"
     inkscape:pagecheckerboard="0"
     inkscape:deskcolor="#d1d1d1"
     showgrid="false"
     inkscape:zoom="0.12436035"
     inkscape:rotation="180"
     inkscape:cx="498.55119"
     inkscape:cy="2967.1837"
     inkscape:window-width="1920"
     inkscape:window-height="1017"
     inkscape:window-x="-8"
     inkscape:window-y="-8"
     inkscape:window-maximized="1"
     inkscape:current-layer="svg12" />
  <path
     fill="#047cbb"
     d="m 2590.434,2463.3469 448.8894,-293.9928 -20.7113,-20.5956 c -68.0852,-67.711 -218.2615,-217.4692 -231.3934,-230.7488 -6.3028,-6.3741 -11.6646,-11.4568 -11.9146,-11.2936 -0.2488,0.1638 1.0886,5.0441 2.9756,10.8486 1.8855,5.8032 3.468,11.076 3.5151,11.7146 0.046,0.6393 1.3635,4.4384 2.9268,8.4445 1.5621,4.0045 2.6617,7.3991 2.4436,7.5416 -0.2184,0.1438 0.5231,2.3992 1.6494,5.014 2.4189,5.6141 1.7384,7.0297 -0.9525,1.9832 -1.0297,-1.9301 -2.3182,-3.7916 -2.864,-4.1369 -0.5476,-0.347 -6.6375,-10.4163 -13.5344,-22.3756 -6.8982,-11.9621 -13.3334,-22.8754 -14.3014,-24.2542 -0.9684,-1.3781 -3.1424,-4.8933 -4.8305,-7.8118 -8.5603,-14.7969 -15.8487,-26.0551 -18.6954,-28.8785 a 36247.822,12110.174 62.570314 0 1 -37.1025,-37.0427 101791.37,34007.864 62.570316 0 0 -74.5484,-74.3987 c -22.3394,-22.2762 -68.5288,-68.3375 -102.6436,-102.3605 -72.0726,-71.8799 -74.46,-74.2591 -114.5818,-114.2108 -16.7163,-16.6452 -35.2744,-35.1596 -41.2396,-41.1421 -29.6535,-29.7412 -81.3164,-80.9276 -82.325,-81.5659 -0.6288,-0.3991 -0.3362,0.7891 0.6489,2.6362 0.9853,1.8473 1.9642,4.2881 2.1755,5.4241 0.2115,1.1344 2.7715,7.6324 5.6887,14.4387 2.9171,6.806 5.5418,13.3158 5.8329,14.4659 0.2904,1.1503 2.3573,6.3795 4.5925,11.6213 2.235,5.2414 4.3019,10.4705 4.5923,11.6207 0.2911,1.1505 2.9124,7.6625 5.826,14.4707 2.9137,6.8086 5.5305,13.3237 5.8158,14.4775 0.2852,1.1538 1.6346,4.6586 2.9984,7.7887 1.3638,3.13 3.4347,8.3563 4.6028,11.6145 1.1685,3.2571 6.1737,15.8884 11.1237,28.068 4.9498,12.1793 9.6323,23.9241 10.4061,26.0992 0.7739,2.1747 2.8465,7.4004 4.6055,11.6122 1.7592,4.2122 3.8436,9.4304 4.6318,11.5957 0.7877,2.166 3.3876,8.692 5.777,14.5026 2.3901,5.8105 5.3073,13.2251 6.4841,16.4778 1.176,3.2524 3.4666,8.8837 5.0902,12.5139 1.6238,3.6307 2.991,7.1239 3.0389,7.7627 0.048,0.6388 2.6231,7.134 5.7243,14.4368 3.1,7.3006 6.3702,15.4826 7.266,18.1818 0.8967,2.6997 3.1272,8.1407 4.957,12.0924 1.8307,3.9531 3.1205,7.3215 2.8666,7.4874 -0.2529,0.1663 0.9275,3.3485 2.6253,7.0743 1.697,3.7243 3.9483,9.1083 5.0021,11.9627 1.0539,2.8547 2.3377,5.8521 2.8533,6.6605 0.5164,0.8112 1.206,2.5531 1.5335,3.8719 0.3285,1.3207 2.4258,6.6886 4.6609,11.9301 2.2348,5.241 4.3037,10.4841 4.5962,11.65 0.2938,1.168 2.3754,6.3872 4.6265,11.5992 2.2519,5.2133 4.1426,9.9942 4.2016,10.6259 0.06,0.6313 2.6692,7.1508 5.7995,14.4879 3.1304,7.3373 5.9282,14.2969 6.2167,15.4653 0.2891,1.1709 2.3682,6.3927 4.6191,11.6041 2.2519,5.2137 4.1427,9.9944 4.2016,10.6263 0.06,0.6312 2.6446,7.1206 5.7456,14.423 3.1002,7.3008 6.3702,15.4825 7.266,18.1818 0.8965,2.699 3.1274,8.1411 4.9572,12.0927 1.8307,3.9532 3.1326,7.3136 2.8941,7.469 -0.2378,0.1569 1.5408,4.7563 3.9542,10.2249 2.4134,5.4683 5.1353,12.1877 6.0496,14.9333 0.914,2.7467 3.48,9.2873 5.7028,14.5365 2.2225,5.2502 4.2797,10.486 4.5712,11.6353 0.2915,1.1497 2.5154,6.8245 4.9424,12.6109 5.2776,12.5845 13.9286,34.0655 15.9278,39.5506 0.789,2.1655 2.8582,7.3931 4.5982,11.6173 1.7401,4.2248 3.3942,8.627 3.676,9.783 0.281,1.1565 0.9117,2.9374 1.4001,3.9587 1.9735,4.1207 9.7103,23.0602 10.2153,25.0061 0.2968,1.1464 2.387,6.3461 4.6445,11.5558 2.2567,5.2077 4.3327,10.4305 4.6137,11.607 0.2807,1.1736 1.7392,4.897 3.2415,8.2707 2.5765,5.786 2.9811,9.2835 0.5456,4.7157 -2.6179,-4.9087 -12.5115,-26.8534 -12.5886,-27.9208 -0.047,-0.6404 -4.1716,-10.0081 -9.1673,-20.8175 -4.9961,-10.81 -9.3199,-20.5968 -9.6091,-21.7477 -0.2889,-1.1515 -3.4589,-8.4018 -7.0449,-16.1116 -3.586,-7.7096 -6.7654,-14.954 -7.0657,-16.0981 -0.3002,-1.144 -3.4672,-8.3969 -7.0375,-16.1167 -3.5705,-7.72 -6.7571,-14.9035 -7.0825,-15.965 -0.3247,-1.0605 -1.4114,-3.6401 -2.4156,-5.7332 -2.9,-6.0475 -15.9304,-35.6461 -17.1218,-38.8939 -0.5953,-1.6216 -3.6223,-8.4171 -6.7266,-15.101 -3.1044,-6.6845 -6.2746,-13.9346 -7.045,-16.1117 -0.7696,-2.1775 -5.4091,-12.8544 -10.3094,-23.7266 -12.1322,-26.9181 -22.0584,-49.4163 -23.3697,-52.9677 -0.5975,-1.62 -4.5788,-10.5342 -8.8464,-19.8092 -4.2676,-9.2747 -8.2446,-18.191 -8.8376,-19.8144 -1.1636,-3.1826 -9.0106,-21.0315 -23.7218,-53.9554 -5.0992,-11.4128 -9.543,-21.6689 -9.8759,-22.7912 -0.3326,-1.1233 -3.5381,-8.3508 -7.1235,-16.061 -3.5856,-7.7106 -6.755,-14.9607 -7.044,-16.1129 -0.2895,-1.1508 -4.6181,-10.9341 -9.6202,-21.7393 -5.0024,-10.806 -9.3395,-20.584 -9.6385,-21.7286 -0.2989,-1.1447 -3.4658,-8.3974 -7.0368,-16.1169 -3.5712,-7.7198 -6.7385,-14.972 -7.0386,-16.1154 -0.3002,-1.1444 -3.4798,-8.3887 -7.0656,-16.0984 -3.5863,-7.7102 -6.7565,-14.9605 -7.0453,-16.1121 -0.2897,-1.1509 -4.6181,-10.934 -9.6203,-21.7398 -5.0023,-10.8057 -9.3393,-20.5834 -9.6385,-21.7285 -0.299,-1.1446 -3.4658,-8.3971 -7.0367,-16.1165 -3.5712,-7.7199 -6.7316,-14.9764 -7.0232,-16.1264 -0.2916,-1.1495 -4.4285,-10.51 -9.1934,-20.8004 -4.7647,-10.2903 -8.9064,-19.648 -9.2025,-20.7945 -0.2969,-1.1465 -3.4613,-8.4006 -7.0323,-16.12 -3.5711,-7.7197 -6.7222,-14.9821 -7.0016,-16.1396 -0.2797,-1.1574 -2.3648,-6.0438 -4.6348,-10.8604 l -4.1244,-8.7544 -18.7991,-18.7245 c -10.3387,-10.295 -31.8319,-31.6896 -47.7616,-47.5359 -15.9306,-15.8511 -53.5299,-53.3529 -83.5554,-83.3432 -30.0259,-29.9923 -55.4673,-55.3852 -56.5355,-56.4306 -1.5921,-1.5571 -2.1214,-1.0698 -2.9207,2.6916 -0.5363,2.5278 -1.2595,4.8827 -1.6062,5.2327 -0.347,0.3511 -0.317,1.2255 0.066,1.9429 0.3826,0.7175 0.1217,2.3568 -0.5816,3.6411 -0.7032,1.2845 -1.3697,3.9947 -1.4812,6.0234 -0.2065,3.7229 -3.7249,1.0728 -4.0227,-3.0297 -0.06,-0.8306 -0.7117,-2.7616 -1.4474,-4.2916 -2.5655,-5.3328 -10.9995,-25.7297 -11.5032,-27.8204 -2.2192,-9.21 -4.9345,-12.7649 -24.8377,-32.5212 -10.5897,-10.5133 -19.6775,-19.154 -20.1955,-19.2038 -0.5186,-0.051 -0.2058,5.2253 0.6959,11.7268 1.5426,11.1226 4.2316,31.4446 6.7496,51.0034 a 12107.915,4045.1802 62.570315 0 0 4.0525,30.8959 c 1.6175,12.243 3.1598,24.2293 3.4281,26.6369 0.4741,4.2708 2.8593,22.6246 5.7658,44.3711 a 2674.1894,893.43027 62.570318 0 1 1.9282,14.6425 c 0.264,2.097 2.0623,15.9072 3.9955,30.6899 1.9328,14.7806 3.7185,28.6126 3.9669,30.7355 0.6428,5.4832 4.1633,32.525 5.7861,44.4454 a 1745.2832,583.08832 62.570317 0 1 2.5244,19.3991 c 2.4378,19.73 5.6441,44.1894 6.7463,51.4687 1.2647,8.3561 1.1691,9.1276 -0.6996,5.6228 -0.6922,-1.2975 -14.8067,-77.6561 -31.3657,-169.684 -27.7786,-154.3777 -30.32,-167.602 -32.8465,-170.8918 -1.506,-1.961 -10.7965,-18.2468 -20.6459,-36.191 l -17.9097,-32.6287 -1.7953,-7.1698 -1.7958,-7.17 -49.3575,-49.23614 a 184353.07,61591.219 62.570314 0 1 -67.6243,-67.4781 28879.594,9648.4945 62.570315 0 0 -47.2391,-47.051 c -15.9342,-15.8428 -62.1878,-61.9543 -102.7858,-102.467 -40.5977,-40.51339 -119.6294,-119.31094 -175.6274,-175.10777 -55.997,-55.79464 -105.2323,-104.91051 -109.4112,-109.14441 -4.1803,-4.23697 -28.4585,-28.47643 -53.9527,-53.86923 -52.6917,-52.48148 -97.1088,-96.74964 -164.0086,-163.45795 -25.5269,-25.45372 -53.0697,-52.84338 -61.2071,-60.86906 l -14.7961,-14.59081 -7.0262,-0.85733 a 1923.38,642.58943 62.570317 0 1 -12.9891,-1.84735 c -3.2796,-0.54549 -8.2133,-1.28112 -10.9641,-1.63551 -2.7519,-0.3567 -5.9193,-1.05573 -7.0406,-1.55689 -1.1204,-0.49955 -4.5422,-1.02069 -7.60217,-1.15433 -3.0609,-0.13504 -6.3703,-0.69004 -7.3553,-1.23391 -0.9849,-0.54418 -3.0918,-0.89234 -4.683,-0.7756 -1.591,0.11792 -4.2372,-0.34203 -5.8794,-1.02004 -1.6427,-0.67786 -5.6342,-1.30213 -8.8699,-1.38696 -3.2358,-0.0842 -6.4844,-0.60842 -7.2186,-1.1626 -0.7349,-0.5557 -3.4342,-1.04658 -5.9983,-1.09148 -2.5647,-0.0448 -5.4426,-0.52843 -6.3947,-1.07386 -0.952,-0.54363 -4.5186,-1.30381 -7.926,-1.68851 -12.468,-1.40284 -16.2428,-2.01058 -18.259,-2.94129 -1.1318,-0.52104 -4.7139,-1.01508 -7.9584,-1.09411 -3.2454,-0.0808 -6.4912,-0.59953 -7.2137,-1.15388 -0.7236,-0.55603 -3.2194,-1.0234 -5.5475,-1.03937 -2.3278,-0.0168 -4.8655,-0.51773 -5.6397,-1.11373 -0.774,-0.59661 -3.6638,-1.0575 -6.4216,-1.02457 -2.7581,0.0322 -5.4426,-0.41626 -5.9664,-0.99828 -0.5235,-0.58215 -3.785,-1.1294 -7.2485,-1.21889 -3.4625,-0.0876 -6.894,-0.62679 -7.626,-1.19921 -0.7309,-0.56982 -3.4168,-1.02081 -5.9662,-0.9972 -2.5504,0.021 -5.0593,-0.42572 -5.5752,-0.9926 -0.5162,-0.56937 -3.805,-1.16746 -7.3103,-1.33478 -3.5038,-0.16547 -6.9641,-0.75838 -7.6896,-1.31832 -0.7254,-0.55916 -3.3867,-1.00418 -5.9145,-0.98806 -2.5278,0.0166 -5.3817,-0.42158 -6.3417,-0.97441 -0.9599,-0.55073 -4.7108,-1.32191 -8.336,-1.71488 l -11.9441,-1.28949 c -2.9438,-0.31629 -5.7607,-1.01284 -6.259,-1.54754 -0.4988,-0.53474 -3.739,-1.04267 -7.2026,-1.13225 -3.4623,-0.0874 -6.9007,-0.63924 -7.6393,-1.22421 -0.7389,-0.58435 -3.4957,-1.00399 -6.1238,-0.92945 -2.6289,0.0753 -5.0873,-0.44088 -5.4637,-1.14739 -0.3761,-0.70492 -3.0713,-1.17351 -5.9886,-1.03932 -3.4303,0.15636 -5.7609,-0.61297 -6.5957,-2.17839 -1.3812,-2.58749 1.1098,-5.3544 3.126,-3.47582 0.6342,0.5885 5.1197,0.86767 9.9683,0.61642 4.8473,-0.25312 12.3421,-0.39309 16.6552,-0.31232 4.3129,0.0811 10.8849,-0.0418 14.6044,-0.27307 3.7197,-0.23082 7.1437,-0.0332 7.6087,0.43851 0.4646,0.46584 4.6284,0.41792 9.2528,-0.11803 4.6234,-0.53766 8.9774,-0.56153 9.676,-0.0524 0.6973,0.5074 4.0205,0.5157 7.384,0.0174 3.3636,-0.49855 6.6856,-0.49222 7.384,0.017 0.6976,0.50746 4.8592,0.45072 9.2483,-0.1269 4.3888,-0.57749 8.6396,-0.79464 9.4454,-0.48434 1.7519,0.67442 12.2523,0.67381 23.6752,-0.004 4.5529,-0.26975 8.9368,-0.23783 9.7435,0.0743 0.8067,0.31181 4.5777,0.50462 8.3822,0.43325 12.762,-0.24596 21.5861,-0.27648 22.0836,-0.0773 0.2716,0.10814 0.8812,-0.26062 1.354,-0.82401 0.474,-0.5595 1.5827,-0.44596 2.4653,0.25562 0.8824,0.70311 4.4275,0.83944 7.8783,0.30354 3.4513,-0.53326 6.5559,-0.44381 6.8992,0.19991 0.3429,0.64286 3.5835,0.66116 7.2013,0.0384 3.6189,-0.6209 7.1621,-0.69037 7.877,-0.15049 0.7139,0.53828 4.9287,0.58077 9.3656,0.0937 4.4374,-0.48319 8.682,-0.35443 9.4322,0.29136 1.8152,1.56378 4.398,-0.20833 3.0587,-2.10137 -0.5777,-0.81717 -18.5322,-18.87525 -39.8979,-40.128148 -21.3671,-21.25465 -41.8641,-41.68002 -45.5494,-45.38827 -3.6856,-3.71082 -13.3978,-13.37314 -21.5816,-21.47624 -35.9411,-35.58447 -135.8407,-135.269402 -138.2264,-137.929692 -1.958,-2.18268 -3.3327,-2.46752 -5.402,-1.11776 -1.5228,1.0025 -3.2653,1.22575 -3.8646,0.51086 -0.5996,-0.71502 -7.2584,1.2697 -14.7987,4.41157 -7.5404,3.14237 -14.2138,5.1099 -14.8305,4.37401 -0.6162,-0.73479 -2.9713,-0.13003 -5.2337,1.34565 -2.602,1.6808 -4.2489,1.91868 -4.4808,0.61062 -0.2026,-1.14023 5.8409,-6.80817 13.4287,-12.59719 7.5874,-5.78936 13.9449,-11.55584 14.1276,-12.81477 0.1826,-1.25918 0.5219,-2.78926 0.7546,-3.39833 0.4439,-1.16191 -59.0047,-60.91725 -59.9756,-60.28451 -0.3021,0.19751 0.2935,1.93742 1.321,3.86731 1.0302,1.92967 1.8793,4.17922 1.8901,5.0007 0.011,0.82108 1.078,3.47764 2.3721,5.90475 4.056,7.61562 1.558,5.45676 -3.5487,-3.05926 -2.6838,-4.47606 -5.8098,-9.28759 -6.9471,-10.69406 -1.1376,-1.40677 -4.6329,-6.54281 -7.7685,-11.41534 -5.2621,-8.17667 -10.1229,-13.26919 -63.0584,-66.05906 a 151836.78,50727.73 62.570315 0 1 -73.5855,-73.41254 21345.069,7131.2554 62.570317 0 0 -40.3955,-40.23333 c -13.2909,-13.21037 -24.6512,-24.70747 -25.245,-25.55695 -0.5924,-0.8435 -1.386,-1.3471 -1.7634,-1.12291 -0.3817,0.21886 -10.0653,-8.98897 -21.5291,-20.47942 -37.1964,-37.28114 -68.3813,-68.21164 -68.9851,-68.41299 -0.6441,-0.21518 6.5744,22.81366 12.3441,39.384 1.9905,5.71544 3.4612,10.51252 3.2667,10.65883 -0.3944,0.3021 -5.6058,-7.83718 -10.9856,-17.15667 -1.9661,-3.40668 -3.6277,-6.16046 -3.6911,-6.11897 -0.063,0.0403 -6.221,-10.19286 -13.6832,-22.74405 -25.9091,-43.57379 -24.6447,-41.75587 -39.017,-56.10185 -7.0388,-7.0267 -36.6121,-36.47207 -65.717,-65.43322 -29.105,-28.96158 -54.0953,-53.96604 -55.5335,-55.56604 -4.2321,-4.70358 -156.716001,95.00933 -153.762301,100.54929 1.0613,1.98767 1.6973,3.76516 1.4158,3.94881 -0.2811,0.1835 0.9352,3.5023 2.7022,7.37299 1.7679,3.86985 4.1818,9.69608 5.3643,12.94471 1.1828,3.24788 5.9841,15.46341 10.6711,27.14503 19.1471,47.72888 50.241701,125.89193 51.553201,129.59193 0.7688,2.17698 2.8378,7.40614 4.5918,11.62157 1.7544,4.2149 4.155,10.32304 5.3351,13.57293 1.1805,3.24944 4.1072,10.38795 6.5047,15.86152 2.3988,5.47397 4.3683,10.55684 4.3787,11.29544 0.01,0.73994 0.8587,2.92119 1.8881,4.8514 1.03,1.92988 1.6115,3.67786 1.2948,3.8843 -0.8184,0.53876 -11.1217,-20.5735 -14.4295,-29.56563 -1.0876,-2.95706 -6.5153,-15.32717 -23.685401,-53.97997 -5.076,-11.42762 -9.7177,-22.1032 -10.3144,-23.72321 -0.5971,-1.62028 -3.626,-8.41488 -6.7304,-15.09908 -3.1044,-6.6842 -6.2745,-13.93445 -7.0448,-16.11168 -0.7698,-2.17759 -5.4097,-12.85466 -10.3096,-23.72642 -15.6093,-34.63349 -22.3501,-49.91048 -22.9605,-52.03589 -0.3261,-1.13715 -2.1564,-5.42449 -4.0671,-9.528 -1.9102,-4.1013 -4.3304,-9.36798 -5.3762,-11.6989 l -1.9029,-4.24029 -312.529159,204.10669 c -260.80313,170.32383 -311.79907,204.16351 -308.11523,204.45538 2.42838,0.19219 5.38243,0.81837 6.5647,1.39228 1.1837,0.57495 4.79245,1.10099 8.01897,1.16896 3.22727,0.0684 6.47612,0.59273 7.21882,1.163 0.7426,0.5703 3.60706,1.01118 6.36535,0.97871 2.75777,-0.0327 5.43863,0.40888 5.95649,0.97995 0.51854,0.5717 3.94904,1.16335 7.62578,1.31605 8.16651,0.33736 12.21858,4.41074 5.78602,5.81798 -2.24722,0.49045 -4.68027,0.4336 -5.40562,-0.12609 -0.72547,-0.55892 -4.07082,-0.60971 -7.43433,-0.11121 -3.36362,0.49832 -6.68552,0.49202 -7.38393,-0.017 -0.69763,-0.50747 -4.88089,-0.49057 -9.29547,0.0384 -4.41397,0.52994 -8.6055,0.53085 -9.31465,0.002 -0.70815,-0.52733 -4.17383,-0.47566 -7.70118,0.11623 -3.52734,0.59113 -6.99667,0.63688 -7.71042,0.0988 -0.71384,-0.53804 -5.60119,-0.53186 -10.86082,0.0139 -9.2982,0.96301 -10.80212,1.81761 -54.11589,30.71073 l -44.55144,29.719952 17.0693,17.01562 a 155476.43,51943.714 62.570316 0 1 55.22758,55.09334 c 77.44682,77.28191 112.38966,112.07712 115.63675,115.14594 3.05458,2.887098 4.37639,2.719328 15.90091,-2.03256 6.9136,-2.85007 12.87945,-4.59977 13.25856,-3.88954 0.37901,0.71025 4.63169,-0.48524 9.45152,-2.65697 10.0773,-4.54048 13.24136,-2.54547 4.74719,2.9939 -3.20116,2.07523 -5.45714,4.6366 -5.11786,5.77456 0.35795,1.20131 -3.05581,4.548118 -8.31689,8.147398 -14.18933,9.71292 -15.94188,5.73758 17.14201,38.88826 15.52769,15.56304 29.96335,30.24371 32.07923,32.63199 l 3.84581,4.3418 -2.92741,-6.98736 c -1.60985,-3.84191 -3.0572,-7.72113 -3.21721,-8.62059 -0.15922,-0.89874 -1.30055,-3.53167 -2.53812,-5.85213 -4.15661,-7.78619 -1.25833,-4.98951 4.00925,3.87878 2.86738,4.82696 5.64424,9.04988 6.1693,9.38219 0.52644,0.33387 4.41881,6.2533 8.64969,13.15767 7.54071,12.30259 7.9894,12.84531 22.65986,27.44217 a 6742.6137,2252.6657 62.570314 0 1 25.83927,25.81935 c 5.9797,6.0105 17.90155,17.87062 26.49401,26.35965 16.89854,16.69358 126.15115,125.70095 149.07095,148.73779 7.7213,7.76075 17.91232,17.93624 22.64794,22.61871 l 8.60891,8.50615 -2.03474,-6.70443 c -1.11934,-3.68921 -3.97714,-12.56108 -6.35093,-19.71686 -2.37277,-7.15388 -4.37347,-13.52273 -4.44675,-14.1522 -0.0684,-0.62789 -0.92581,-3.09154 -1.8953,-5.47299 -4.68254,-11.49636 3.38451,0.52118 23.03286,34.30764 7.90868,13.59968 15.69078,26.61151 17.29366,28.91594 1.60354,2.30395 5.14518,7.99641 7.87088,12.652 5.40716,9.23382 -7.88735,-4.28807 178.242779,181.29498 A 918026.92,306707.12 62.570316 0 1 276.73993,901.10785 c 37.5737,37.4983 40.7205,40.3652 37.3263,33.9995 -0.955,-1.7891 -1.9072,-4.1818 -2.1185,-5.3177 -0.2132,-1.1349 -2.7713,-7.6321 -5.6888,-14.4387 -2.9173,-6.806 -5.5419,-13.3156 -5.8327,-14.4657 -0.2904,-1.1503 -2.3578,-6.3801 -4.5923,-11.6208 -2.2354,-5.2421 -4.3022,-10.4713 -4.5929,-11.6215 -0.2903,-1.15 -2.8563,-7.5327 -5.7007,-14.1821 -2.8446,-6.6511 -5.6504,-13.5912 -6.2342,-15.4226 -0.5843,-1.8329 -11.674,-29.8452 -24.6438,-62.251 -12.9692,-32.406 -24.5368,-61.58452 -25.706,-64.8418 -1.1695,-3.25754 -3.4559,-8.89113 -5.0825,-12.51967 -1.6263,-3.62847 -3.1934,-7.53951 -3.4814,-8.6921 -0.2907,-1.15141 -2.6914,-7.25741 -5.3408,-13.56859 -2.6492,-6.311 -5.7707,-14.1413 -6.9368,-17.39992 -1.1656,-3.25918 -3.4514,-8.89455 -5.0778,-12.52251 -1.6265,-3.62895 -3.1851,-7.54493 -3.4636,-8.7036 -0.2745,-1.15889 -2.8891,-7.67675 -5.8028,-14.48545 -2.914,-6.80857 -5.5354,-13.32056 -5.8263,-14.47072 -0.2904,-1.15013 -2.3574,-6.3797 -4.5925,-11.62115 -2.2347,-5.24119 -4.3018,-10.47055 -4.5923,-11.62136 -0.2911,-1.14954 -2.9124,-7.66195 -5.826,-14.47016 -2.914,-6.80876 -5.5351,-13.32088 -5.8261,-14.47034 -0.2905,-1.15092 -2.3574,-6.37969 -4.5925,-11.62144 -2.2349,-5.24157 -4.3021,-10.47052 -4.5923,-11.62126 -0.2912,-1.14954 -2.9123,-7.66207 -5.8261,-14.47056 -2.9137,-6.80848 -5.5347,-13.32022 -5.8259,-14.47035 -0.2913,-1.15033 -2.3574,-6.38001 -4.592,-11.62111 -2.2357,-5.24177 -4.3042,-10.48456 -4.5967,-11.65014 -0.2947,-1.16767 -2.3804,-6.38474 -4.6369,-11.59277 -2.2574,-5.20915 -4.3475,-10.40895 -4.6444,-11.55514 -0.2974,-1.14564 -2.6981,-7.25335 -5.3349,-13.57305 -2.6372,-6.31904 -5.0334,-12.42926 -5.3261,-13.57823 -0.292,-1.14964 -2.3606,-6.37784 -4.5956,-11.61939 -2.2349,-5.24146 -4.3191,-10.4591 -4.6308,-11.59584 -0.3124,-1.13647 -2.929,-7.6511 -5.8157,-14.47712 -2.886701,-6.82631 -5.496201,-13.34645 -5.799301,-14.48855 -0.3027,-1.14224 -2.1852,-5.94347 -4.1837,-10.6697 -1.9976,-4.72572 -4.272,-10.36817 -5.0521,-12.53888 -0.781,-2.17051 -3.3744,-8.70054 -5.7638,-14.51113 -2.3901,-5.8104 -5.3015,-13.22934 -6.4707,-16.48631 -1.1691,-3.25677 -3.5722,-9.09062 -5.3401,-12.96068 -1.7669,-3.87018 -3.0125,-7.17022 -2.766,-7.33106 0.2463,-0.16101 -0.9411,-3.33985 -2.6387,-7.06617 -1.6967,-3.72371 -3.947,-9.10886 -4.9992,-11.96463 -2.2499,-6.10372 -2.0782,-5.66995 -4.8896,-12.38477 -2.2539,-5.38456 -2.1892,-7.83375 0.093,-3.55353 2.5137,4.70875 11.4593,24.69673 11.973,26.74445 0.2905,1.15061 3.6593,8.81879 7.4904,17.03898 3.8306,8.22012 7.208,15.88304 7.5049,17.02935 0.2967,1.14651 4.4228,10.51389 9.1686,20.817 4.7458,10.3029 8.8793,19.66565 9.1851,20.80565 0.3069,1.14027 3.478501,8.38884 7.049601,16.10852 3.5714,7.72015 6.7406,14.97048 7.0428,16.11339 0.3028,1.14193 4.6291,10.9272 9.6151,21.74362 4.9862,10.81578 9.3125,20.60095 9.6143,21.7439 0.3013,1.1431 3.4648,8.36187 7.0298,16.04127 3.5649,7.67992 6.9282,15.35202 7.474,17.05002 0.5464,1.69671 5.0074,11.97872 9.9135,22.84719 14.8419,32.88085 22.3448,49.85257 22.9872,51.99884 0.3365,1.12096 3.3316,7.93679 6.6583,15.14583 3.3263,7.20958 6.5484,14.42579 7.1596,16.03679 0.6115,1.61087 1.556,3.62617 2.0982,4.47546 0.5438,0.85154 1.4939,2.97216 2.113,4.71266 0.6229,1.74111 4.1399,9.96883 7.8241,18.28507 3.6839,8.31659 10.0469,22.80169 14.1403,32.19015 4.0943,9.38906 11.2705,25.5363 15.9489,35.88295 4.678,10.3474 8.9525,20.20319 9.4988,21.90012 0.5453,1.69795 3.9092,9.37039 7.4739,17.04997 3.5652,7.6798 6.7287,14.8979 7.0298,16.041 0.302,1.1426 4.6282,10.9283 9.614,21.7442 4.9862,10.8164 9.3123,20.6013 9.6144,21.7446 0.3013,1.1432 3.4825,8.3862 7.0686,16.096 3.5857,7.7095 6.7562,14.9602 7.0449,16.1118 0.2905,1.1506 4.6181,10.9339 9.6203,21.7398 5.0027,10.8058 9.3349,20.5868 9.6283,21.735 0.2934,1.1485 3.5588,8.6096 7.2575,16.5821 3.6971,7.9708 6.5451,14.6106 6.3265,14.7536 -0.2179,0.1436 2.8565,7.1497 6.8334,15.5718 3.9778,8.4221 8.6389,18.8093 10.3605,23.0852 1.7199,4.2737 5.8433,13.6742 9.162,20.8889 3.3186,7.2138 6.2703,14.0857 6.5592,15.2714 0.2898,1.185 2.5191,6.3303 4.9574,11.4337 l 4.4331,9.2795 63.4411,63.32205 c 34.8929,34.8279 66.4722,66.3094 70.1778,69.9612 3.7067,3.6535 11.999,11.9207 18.4291,18.3758 58.6415,58.8606 57.5266,57.9397 57.3462,47.4531 -0.032,-1.8842 0.4543,-3.1022 1.0797,-2.7068 0.6273,0.3971 0.7289,-0.048 0.2253,-0.9925 -0.5024,-0.9412 -0.3393,-2.7653 0.3647,-4.0478 0.7029,-1.2841 1.3698,-3.9948 1.4815,-6.0233 0.2071,-3.7404 3.7697,-1.0262 3.999,3.0461 0.048,0.8395 2.9788,8.125 6.5156,16.1938 3.5357,8.0664 6.4369,15.2073 6.4452,15.8666 0.01,0.6602 1.3801,4.1938 3.0483,7.8539 2.9311,6.4341 3.6987,7.3199 22.8091,26.3538 l 19.7761,19.6955 -0.277,-5.6343 c -0.1525,-3.0988 -0.5244,-6.3225 -0.8275,-7.1652 -0.3059,-0.8435 -1.143,-6.5725 -1.8636,-12.7295 -0.7218,-6.1578 -1.8752,-15.2714 -2.5634,-20.2528 a 1605.9831,536.54905 62.570317 0 1 -2.4208,-18.372 c -0.6446,-5.1252 -2.7212,-21.0709 -4.6168,-35.4371 -1.8948,-14.3644 -3.6558,-27.8641 -3.911,-29.9975 -1.1169,-9.2913 -3.6771,-29.1755 -4.827,-37.4803 a 1853.1806,619.13624 62.570314 0 1 -2.5365,-19.1495 2936.7081,981.13605 62.570314 0 0 -2.6441,-20.2002 c -0.7454,-5.5412 -2.2565,-17.164 -3.356,-25.8259 a 9459.1802,3160.254 62.570314 0 0 -5.2535,-40.42255 c -1.7914,-13.5714 -3.813,-29.2429 -4.4955,-34.8269 a 1205.7111,402.82069 62.570314 0 0 -2.5013,-19.1724 c -0.6917,-4.9592 -1.9414,-14.5543 -2.7733,-21.3198 -0.83,-6.7633 -1.8477,-13.4541 -2.2615,-14.8702 -0.9809,-3.3627 9e-4,-3.9301 1.6037,-0.9238 0.6928,1.2979 14.8055,77.6523 31.3649,169.67825 29.5036,163.9657 30.1712,167.4059 33.3201,171.6084 1.8723,2.4982 6.7257,10.9939 11.6361,20.3689 4.6335,8.8464 8.8676,16.4944 9.4075,16.9972 0.5404,0.5014 4.6251,7.7459 9.0778,16.0964 7.2478,13.5991 8.2833,15.9347 9.8975,22.3781 1.5705,6.2692 2.1191,7.5338 4.2711,9.8304 2.0393,2.1779 30.5402,30.6584 51.9972,51.9614 2.8506,2.83 38.7314,38.6243 79.7344,79.5426 41.0031,40.9187 89.8427,89.6375 108.5329,108.2634 18.6899,18.6269 55.25847,55.0853 81.26327,81.0188 a 1071377.5,357940.6 62.570316 0 0 93.6859,93.4156 c 25.5221,25.4443 49.4182,49.3059 53.1037,53.0266 3.6838,3.7188 16.0307,16.0233 27.4359,27.3439 11.4051,11.3204 57.6014,57.3768 102.6586,102.3502 102.8564,102.6672 113.7316,113.5137 140.1905,139.8329 a 64489.711,21545.614 62.570314 0 1 61.4169,61.1971 c 42.8731,42.7617 41.9603,41.9939 51.2224,43.0921 a 1717.1369,573.68489 62.570315 0 1 12.1721,1.7174 c 3.2767,0.5404 8.2085,1.2722 10.9594,1.6269 2.7518,0.3564 5.919,1.055 7.0406,1.5565 1.1202,0.5 4.5499,1.0356 7.6193,1.1867 3.0706,0.1532 6.4989,0.6863 7.6194,1.1865 1.1203,0.4993 3.7859,0.9387 5.9234,0.9769 2.1368,0.036 4.4979,0.5329 5.2445,1.1007 0.7485,0.5693 4.2145,1.1469 7.7038,1.285 3.4897,0.1384 6.895,0.6287 7.5674,1.0888 0.6721,0.4602 3.1937,0.9303 5.603,1.0447 2.4084,0.1125 5.2881,0.5999 6.3981,1.0796 1.1096,0.4796 4.8131,1.2014 8.2298,1.6039 13.1855,1.5514 16.2864,2.0573 18.2777,2.9758 1.1318,0.5212 4.7139,1.0157 7.9582,1.0942 3.2453,0.081 6.4913,0.5996 7.2138,1.1541 0.7236,0.5558 3.2192,1.0229 5.5477,1.0396 2.3276,0.016 4.8654,0.5174 5.6396,1.1133 0.7736,0.5963 3.6637,1.0576 6.4214,1.0245 2.7582,-0.032 5.4428,0.4165 5.9663,0.9981 0.524,0.5822 3.7854,1.1295 7.2486,1.2189 3.4624,0.087 6.9026,0.6427 7.6436,1.2315 0.7419,0.5912 2.6931,0.9746 4.3351,0.8508 1.643,-0.1216 4.3231,0.3184 5.9567,0.9803 1.6338,0.6616 5.664,1.341 8.9565,1.5102 3.2926,0.1692 6.5732,0.7529 7.2901,1.2968 0.7167,0.5433 3.3724,0.9772 5.8998,0.9609 2.5281,-0.017 5.3818,0.4212 6.3419,0.9746 0.9597,0.5504 4.7108,1.322 8.3361,1.715 l 11.9439,1.289 c 2.944,0.3164 5.7606,1.0129 6.2595,1.5476 0.4984,0.5348 3.7386,1.0425 7.2019,1.1319 3.4627,0.088 6.9007,0.6393 7.6396,1.2243 0.7387,0.5843 3.4949,1.0044 6.1238,0.9297 2.6284,-0.075 5.087,0.4406 5.4639,1.1475 0.3758,0.7048 3.0711,1.1735 5.9885,1.0393 3.43,-0.1565 5.761,0.6132 6.5955,2.1783 1.3813,2.5874 -1.1096,5.3547 -3.1259,3.4761 -0.6354,-0.5916 -5.1199,-0.868 -9.9682,-0.6166 -4.8477,0.2527 -12.3424,0.3934 -16.6555,0.312 -4.3127,-0.081 -10.8848,0.042 -14.6041,0.273 -3.7197,0.2312 -7.1438,0.033 -7.6088,-0.4384 -0.4646,-0.4654 -4.6287,-0.4183 -9.2527,0.118 -4.6235,0.5377 -8.9835,0.5505 -9.6885,0.029 -0.7043,-0.5197 -4.1752,-0.4775 -7.7138,0.093 -3.5372,0.5726 -6.8467,0.5901 -7.353,0.041 -0.5075,-0.5525 -4.5203,-0.5425 -8.9198,0.015 -4.3982,0.5594 -8.6571,0.7619 -9.4627,0.4519 -1.7519,-0.6749 -12.2525,-0.6741 -23.6753,0 -4.5528,0.2696 -8.9366,0.2376 -9.7436,-0.074 -0.8066,-0.3117 -4.5776,-0.505 -8.3819,-0.4328 -12.762,0.2458 -21.5863,0.2762 -22.0839,0.077 -0.2714,-0.1081 -0.8811,0.2607 -1.355,0.822 -0.4741,0.5593 -1.5825,0.4463 -2.4654,-0.2558 -0.8826,-0.703 -4.4281,-0.8387 -7.8782,-0.3036 -3.4518,0.534 -6.556,0.4441 -6.8992,-0.1996 -0.3431,-0.6433 -3.5837,-0.6614 -7.2015,-0.038 -3.6187,0.6208 -7.162,0.6904 -7.8767,0.1507 -0.7138,-0.538 -4.9287,-0.581 -9.3657,-0.093 -4.4374,0.4832 -8.682,0.3543 -9.4324,-0.2918 -1.5269,-1.316 -4.9032,0.3407 -4.03,1.978 0.3082,0.5784 12.6682,13.0699 27.4682,27.7613 14.7996,14.6907 33.2483,33.0749 40.9957,40.8523 7.7499,7.7845 47.2292,47.1432 87.7343,87.4752 40.5059,40.3343 77.8,77.5869 82.8768,82.7872 9.1887,9.4103 9.2441,9.4445 12.2798,7.4653 1.6733,-1.1018 3.5387,-1.4047 4.138,-0.6899 0.5994,0.7149 7.2583,-1.2698 14.7987,-4.4118 7.5403,-3.1417 14.214,-5.1096 14.8305,-4.3739 0.6165,0.7353 2.7897,0.2483 4.8303,-1.0827 2.036,-1.3405 4.0767,-1.7324 4.5238,-0.8938 0.8778,1.6442 -11.5568,12.7895 -21.5146,19.2842 -3.3763,2.1902 -5.9782,4.903 -5.7947,6.0087 0.1848,1.1066 -0.1069,2.6664 -0.6465,3.4666 -0.8496,1.2605 3.2028,5.6428 30.2561,32.722 28.0928,28.1182 31.073,30.8326 29.6107,26.9731 -0.8955,-2.3621 -2.1478,-5.8569 -2.7836,-7.7688 -0.6363,-1.9111 -2.0304,-5.1139 -3.0974,-7.1148 -3.7339,-6.9944 -0.8776,-4.2365 3.9602,3.8315 2.6841,4.4759 5.817,9.2833 6.9631,10.6843 1.1455,1.4017 4.8945,7.0002 8.3314,12.4444 6.111,9.6779 7.6366,11.2827 68.4165,71.9214 34.1916,34.1116 63.92,63.7936 66.0631,65.9598 34.6433,35.0008 63.8853,63.3617 64.4432,62.5005 0.3749,-0.578 202.6813,-133.3494 449.5709,-295.0441"
     fill-rule="evenodd"
     id="path262"
     style="stroke-width:1.18456" />
  <path
     fill="#047cbb"
     d="m 978.09345,4020.4648 889.18775,-53.5072 -15.2604,-15.0159 c -50.1643,-49.3633 -160.5048,-158.4532 -170.0144,-168.0865 -4.5638,-4.6239 -8.7027,-8.3836 -9.1974,-8.3542 -0.4937,0.03 -2.1857,2.8169 -3.7579,6.1955 -1.5734,3.3774 -3.1976,6.4176 -3.6093,6.755 -0.4126,0.3375 -1.3201,2.5663 -2.0177,4.9543 -0.6974,2.3871 -1.6227,4.3623 -2.0548,4.3879 -0.433,0.025 -1.0317,1.341 -1.3292,2.9228 -0.6378,3.3956 -2.7174,3.9732 -2.9119,0.8091 -0.076,-1.2104 -0.5871,-2.4414 -1.1384,-2.7361 -0.5522,-0.2959 -2.0128,-6.765 -3.2472,-14.3762 -1.2344,-7.6122 -2.5718,-14.5881 -2.9712,-15.5027 -0.4004,-0.9148 -0.9816,-3.1834 -1.2903,-5.0418 -1.5676,-9.4225 -3.9132,-16.7592 -6.0166,-18.8189 a 20198.893,20079.468 6.0813515 0 1 -27.2273,-26.9747 56722.66,56387.352 6.0831342 0 0 -54.7299,-54.1827 c -16.4148,-16.2267 -50.3512,-49.7798 -75.4143,-74.5628 -52.9485,-52.3587 -54.7036,-54.0921 -84.227,-83.2071 -12.3011,-12.13 -25.93,-25.6152 -30.2872,-29.9659 -21.6593,-21.6277 -59.8687,-58.9861 -60.887,-59.5307 -0.6343,-0.3399 -1.0951,0.3314 -1.024,1.4898 0.071,1.1582 -0.3136,2.6187 -0.8563,3.2459 -0.5414,0.626 -1.6356,4.505 -2.4318,8.6189 -0.7961,4.1136 -1.8032,8.0126 -2.238,8.664 -0.4359,0.6516 -1.3066,3.7745 -1.9369,6.9401 -0.6301,3.1653 -1.501,6.2884 -1.9366,6.9398 -0.4347,0.6516 -1.4487,4.5509 -2.2518,8.665 -0.8031,4.1142 -1.8262,8.014 -2.2721,8.6664 -0.4461,0.6518 -1.0833,2.7371 -1.4163,4.6338 -0.3329,1.8966 -1.1957,5.0191 -1.9163,6.9387 -0.7195,1.9196 -2.8041,9.4656 -4.6305,16.7688 -1.8264,7.3029 -3.7225,14.326 -4.2125,15.6062 -0.4896,1.2805 -1.349,4.4027 -1.9104,6.9384 -0.5614,2.5359 -1.3979,5.6568 -1.8593,6.9353 -0.4625,1.2789 -1.5187,5.1808 -2.3485,8.6709 -0.8289,3.49 -2.0839,7.9154 -2.7872,9.834 -0.7047,1.9187 -1.546,5.296 -1.8702,7.5049 -0.324,2.2089 -0.9259,4.2921 -1.3362,4.6296 -0.4106,0.3369 -1.4808,4.2179 -2.378,8.6254 -0.8969,4.4065 -2.2056,9.3003 -2.9095,10.8755 -0.7028,1.5752 -1.4904,4.8422 -1.7501,7.2599 -0.2596,2.419 -0.8825,4.4215 -1.385,4.4514 -0.5016,0.03 -1.1466,1.9141 -1.4323,4.1882 -0.2858,2.2723 -0.9994,5.5146 -1.5853,7.2031 -0.586,1.689 -0.938,3.5002 -0.7809,4.0254 0.156,0.5266 -0.1324,1.5673 -0.6405,2.3128 -0.5077,0.7471 -1.4378,3.9474 -2.0678,7.113 -0.6302,3.1654 -1.5086,6.2957 -1.9531,6.9558 -0.4443,0.661 -1.2855,3.7822 -1.8694,6.936 -0.5839,3.1546 -1.3786,6.0105 -1.7674,6.3462 -0.3877,0.336 -1.4245,4.2366 -2.3041,8.6682 -0.8796,4.4314 -1.9688,8.5979 -2.4211,9.2584 -0.4525,0.6617 -1.3004,3.7833 -1.8844,6.9372 -0.584,3.1544 -1.3786,6.0102 -1.7674,6.346 -0.3875,0.336 -1.4383,4.2157 -2.3353,8.6233 -0.8971,4.4065 -2.2059,9.3003 -2.9098,10.8755 -0.7029,1.5752 -1.4904,4.842 -1.7501,7.2599 -0.2598,2.4186 -0.8584,4.42 -1.3304,4.4482 -0.4719,0.027 -1.2965,2.7672 -1.8326,6.0874 -0.536,3.3201 -1.5571,7.3473 -2.2684,8.9504 -0.7124,1.6029 -1.8305,5.5049 -2.4847,8.6718 -0.6551,3.1669 -1.5453,6.291 -1.9788,6.9426 -0.4337,0.6513 -1.4072,4.0365 -2.163,7.5221 -1.6444,7.5812 -4.9834,20.4442 -6.1479,23.6837 -0.4602,1.2784 -1.3263,4.4012 -1.9253,6.9393 -0.5989,2.538 -1.46,5.1486 -1.913,5.8011 -0.4542,0.6527 -0.8597,1.7006 -0.9035,2.3287 -0.1739,2.5355 -2.9549,13.9003 -3.6717,15.0056 -0.4232,0.6506 -1.2374,3.7634 -1.81,6.9174 -0.5727,3.1529 -1.4251,6.2748 -1.8946,6.9377 -0.4684,0.6614 -1.1076,2.8821 -1.4184,4.9331 -0.5329,3.5181 -2.5694,5.3956 -2.7453,2.5318 -0.1894,-3.0781 1.6506,-16.4469 2.3413,-17.0101 0.414,-0.3373 1.3457,-6.0234 2.0706,-12.6352 0.7248,-6.612 1.6773,-12.5549 2.1155,-13.2064 0.4392,-0.6519 1.194,-5.0476 1.677,-9.7683 0.483,-4.7208 1.2196,-9.1153 1.6361,-9.7656 0.4164,-0.6506 1.178,-5.0466 1.6919,-9.769 0.5139,-4.7227 1.1939,-9.0877 1.5108,-9.7015 0.317,-0.6126 0.647,-2.1678 0.7324,-3.4558 0.2493,-3.7218 3.1991,-21.6859 3.8774,-23.6055 0.3379,-0.9585 0.9623,-5.0905 1.3881,-9.1823 0.4259,-4.0917 1.1805,-8.4874 1.6773,-9.7682 0.4978,-1.2807 1.6523,-7.7477 2.5666,-14.3706 2.2636,-16.3981 4.4736,-30.0575 5.2024,-32.1585 0.3335,-0.9582 1.1372,-6.3805 1.7874,-12.0496 0.6502,-5.6691 1.4618,-11.0918 1.8045,-12.0504 0.6702,-1.8805 2.465,-12.7112 5.4238,-32.7403 1.0262,-6.9425 2.1545,-13.1519 2.5061,-13.7985 0.3525,-0.6466 1.0377,-5.0381 1.522,-9.7589 0.4842,-4.721 1.2401,-9.1165 1.6793,-9.7683 0.4381,-0.6519 1.3804,-6.594 2.0928,-13.2052 0.7124,-6.6111 1.6385,-12.5526 2.0572,-13.2031 0.4188,-0.6507 1.1804,-5.0466 1.6931,-9.7693 0.5127,-4.7223 1.2731,-9.1184 1.6896,-9.7688 0.4166,-0.6503 1.153,-5.045 1.6359,-9.7657 0.4834,-4.7207 1.2381,-9.1165 1.6775,-9.7682 0.4379,-0.6516 1.3801,-6.5939 2.0926,-13.2051 0.7122,-6.6111 1.6385,-12.5526 2.0571,-13.2032 0.4189,-0.6504 1.1805,-5.0465 1.6931,-9.7691 0.5129,-4.7222 1.2869,-9.1192 1.7206,-9.7707 0.4333,-0.6511 1.3424,-6.3358 2.0192,-12.632 0.6767,-6.2963 1.5765,-11.9803 2.0009,-12.6311 0.4233,-0.6506 1.1895,-5.0468 1.7021,-9.7696 0.5128,-4.7224 1.3052,-9.1205 1.7627,-9.7732 0.4562,-0.6528 1.0424,-3.6041 1.3,-6.5599 l 0.4704,-5.3717 -13.8295,-13.6437 c -7.6067,-7.5039 -23.4289,-23.0956 -35.1625,-34.6474 -11.7324,-11.5531 -39.3515,-38.8702 -61.3759,-60.706 -22.0243,-21.836 -40.6995,-40.3291 -41.4993,-41.0948 -1.1923,-1.1415 -2.3475,-1.0057 -6.3727,0.747 -2.7041,1.1779 -5.5557,2.2269 -6.3352,2.331 -0.7809,0.1017 -1.3955,0.5587 -1.3678,1.0086 0.023,0.4502 -1.5968,1.2326 -3.6111,1.738 -2.0145,0.5056 -5.0497,1.7488 -6.7455,2.7627 -3.1149,1.8612 -6.3476,-0.2551 -3.6964,-2.42 0.5372,-0.4377 1.025,-1.5667 1.0848,-2.5085 0.2074,-3.2838 3.0516,-15.5452 3.8794,-16.7238 3.6469,-5.1937 2.2909,-7.5997 -12.4018,-22.0108 -7.8166,-7.6674 -14.8112,-14.0541 -15.5438,-14.1913 -0.7326,-0.1383 -4.2472,2.63 -7.8102,6.1521 -6.0953,6.0263 -17.425,17.0085 -28.433,27.563 a 6747.0681,6707.1836 6.0831404 0 0 -17.2776,16.6888 c -6.8288,6.6159 -13.5766,13.0836 -14.99347,14.3738 -2.51679,2.2882 -12.81306,12.1976 -24.89327,23.9558 a 1490.1769,1481.368 6.0831634 0 1 -8.17699,7.9109 c -1.189,1.1307 -8.93173,8.5869 -17.20708,16.5708 -8.27442,7.9828 -16.05196,15.4481 -17.28356,16.5879 -3.18002,2.9458 -18.34134,17.5465 -24.91936,23.9985 a 972.54915,966.80007 6.0831879 0 1 -10.8782,10.474 c -11.25654,10.6252 -24.9375,23.8367 -28.78924,27.8002 -4.42198,4.5503 -5.14596,4.9244 -5.281,2.7269 -0.0491,-0.8139 36.55556,-42.9447 81.34575,-93.6243 75.13502,-85.0143 81.33052,-92.3318 80.05502,-94.5614 -0.7599,-1.3289 -2.2904,-11.6716 -3.4012,-22.9833 l -2.0197,-20.5688 2.7388,-4.0576 2.7373,-4.0577 -36.25272,-35.862 a 102729.7,102122.4 6.0827836 0 1 -49.65446,-49.1446 16092.992,15997.862 6.0832242 0 0 -34.75092,-34.2862 c -11.74259,-11.5512 -45.73729,-45.1428 -75.54543,-74.6468 -29.80683,-29.5071 -87.88546,-86.9098 -129.06348,-127.563 -41.17825,-40.6533 -77.33989,-76.4283 -80.3601,-79.499 -3.0199,-3.0691 -20.83593,-20.7215 -39.59076,-39.2254 -38.7627,-38.2427 -71.4166,-70.4951 -120.57482,-119.0885 -18.75728,-18.5437 -39.05153,-38.5108 -45.09755,-44.3757 l -10.9948,-10.6646 -9.80054,-1.9555 a 1071.7927,1065.4565 6.0825949 0 1 -17.91995,-3.7531 c -4.46523,-0.9896 -11.246,-2.4284 -15.06882,-3.2053 -3.82283,-0.777 -8.00517,-1.8188 -9.2942,-2.3169 -1.28904,-0.4975 -5.98389,-1.5041 -10.43301,-2.2325 -4.44921,-0.7315 -8.95163,-1.7295 -10.00555,-2.2208 -1.05421,-0.4925 -3.92436,-1.1243 -6.37834,-1.406 -2.45423,-0.2862 -6.04199,-1.0927 -7.9729,-1.795 -1.93066,-0.7017 -7.39486,-1.8833 -12.14214,-2.6257 -4.74765,-0.7436 -9.18272,-1.7117 -9.85624,-2.1544 -0.67369,-0.4449 -4.31705,-1.2788 -8.09546,-1.8539 -3.77982,-0.5773 -7.69405,-1.4466 -8.69857,-1.9307 -1.00558,-0.4846 -5.73511,-1.6437 -10.51137,-2.5772 -17.48025,-3.411 -22.63447,-4.5377 -24.93034,-5.4485 -1.2898,-0.5109 -6.2435,-1.5396 -11.0079,-2.2804 -4.76458,-0.743 -9.19967,-1.7085 -9.85593,-2.1486 -0.6563,-0.4407 -4.01472,-1.2191 -7.46439,-1.7303 -3.44852,-0.5121 -6.84404,-1.3155 -7.5458,-1.7896 -0.70051,-0.4711 -4.64972,-1.3312 -8.77512,-1.9107 -4.12527,-0.5789 -7.77849,-1.388 -8.11832,-1.799 -0.33992,-0.411 -4.77612,-1.3958 -9.85834,-2.1889 -5.08236,-0.7942 -9.77788,-1.8105 -10.43474,-2.2606 -0.65698,-0.452 -4.31028,-1.2611 -8.11846,-1.8003 -3.80843,-0.541 -7.2018,-1.3101 -7.54118,-1.7132 -0.33928,-0.4016 -4.77758,-1.4194 -9.86277,-2.2613 -5.08525,-0.8418 -9.78301,-1.893 -10.4393,-2.335 -0.65659,-0.4454 -4.27848,-1.2466 -8.04885,-1.7832 -3.77164,-0.5389 -7.68418,-1.3794 -8.69469,-1.8691 -1.01166,-0.4901 -6.00705,-1.6948 -11.1011,-2.68 l -16.786754,-3.2394 c -4.13869,-0.7967 -7.80153,-1.762 -8.13969,-2.1446 -0.33806,-0.3824 -4.77276,-1.3412 -9.85479,-2.1311 -5.08244,-0.7964 -9.7785,-1.8204 -10.43583,-2.2792 -0.65756,-0.4608 -4.44004,-1.2695 -8.40444,-1.7994 -3.96552,-0.5292 -7.23129,-1.3249 -7.25855,-1.7678 -0.0277,-0.4421 -3.68114,-1.2634 -8.11999,-1.8254 -5.21827,-0.6617 -8.10359,-1.5583 -8.16393,-2.5396 -0.0998,-1.6236 5.68845,-2.5021 7.26956,-1.1038 0.49829,0.4384 6.958,1.5503 14.35649,2.4685 7.39833,0.916 18.64821,2.4619 25.00007,3.4377 6.35158,0.9719 16.21605,2.3298 21.92082,3.0159 5.704704,0.6834 10.646994,1.5257 10.982494,1.8667 0.33571,0.3435 6.56672,1.2142 13.84691,1.9392 7.28015,0.7238 13.77198,1.6509 14.42652,2.0637 0.65443,0.4106 5.58931,1.1328 10.96625,1.6028 5.37712,0.4723 10.31193,1.1926 10.96643,1.6044 0.65443,0.4112 6.88531,1.28 13.84644,1.9327 6.96113,0.652 13.44566,1.4607 14.40994,1.7932 2.09555,0.7225 17.70945,2.99 35.20528,5.1103 6.97302,0.8457 13.46706,1.8087 14.43142,2.1433 0.96441,0.3344 6.42576,1.2471 12.13666,2.0322 19.16084,2.6308 32.30471,4.523 32.89408,4.7314 0.32163,0.1131 1.50685,0.055 2.63465,-0.1302 1.12679,-0.1848 2.6897,0.1124 3.4726,0.6639 0.78201,0.5501 5.95044,1.3873 11.48537,1.8564 5.53371,0.4725 10.08278,1.1887 10.10755,1.5929 0.0198,0.4049 4.82983,1.1142 10.67869,1.5745 5.84904,0.465 11.16993,1.1945 11.82559,1.6257 0.65545,0.4292 6.89018,1.361 13.85491,2.0711 6.96458,0.7085 13.1764,1.6944 13.80498,2.1855 1.51933,1.1942 6.69612,0.8449 6.13268,-0.4108 -0.24274,-0.543 -13.31874,-13.6653 -29.05706,-29.1599 -15.7383,-15.4917 -30.80996,-30.3728 -33.49234,-33.068 -2.68238,-2.6941 -9.83393,-9.7389 -15.89122,-15.6527 -26.60087,-25.9781 -99.95336,-98.5808 -101.49405,-100.4561 -1.26487,-1.5387 -3.09386,-1.9817 -7.1892,-1.738 -3.02047,0.18 -5.77949,-0.078 -6.13138,-0.5727 -0.35199,-0.496 -11.74995,-0.915 -25.33147,-0.9389 -13.58146,-0.021 -24.98838,-0.4554 -25.35029,-0.9649 -0.36194,-0.5098 -4.31976,-0.7094 -8.79688,-0.4431 -5.13594,0.3058 -7.76472,0.065 -7.12261,-0.6545 0.55979,-0.627 13.81977,-2.223 29.46798,-3.5469 15.64831,-1.3232 29.45046,-2.9022 30.6717,-3.5064 1.22111,-0.6055 2.87968,-1.3162 3.68499,-1.5775 1.53653,-0.4997 -41.78654,-43.9231 -43.70711,-43.8088 -0.59857,0.034 -1.02661,1.0528 -0.95218,2.2639 0.0744,1.21 -0.35838,2.5438 -0.96149,2.9677 -0.60313,0.4235 -1.02026,2.0116 -0.92673,3.5335 0.29353,4.7733 -1.79917,3.1303 -2.96913,-2.335 -0.61452,-2.8678 -1.6334,-6.0066 -2.2635,-6.9706 -0.63027,-0.9661 -1.95361,-4.3491 -2.94143,-7.5215 -1.65646,-5.3212 -5.04325,-8.9781 -43.935564,-47.4315 a 84610.182,84110.018 6.0831137 0 1 -54.0419,-53.4694 11894.418,11824.122 6.0855529 0 0 -29.71765,-29.3175 c -9.79892,-9.6328 -18.01625,-17.9715 -18.26026,-18.5349 -0.24495,-0.5605 -1.04358,-0.9913 -1.77474,-0.9562 -0.73257,0.032 -8.18626,-6.7737 -16.56495,-15.1319 -27.18476,-27.1187 -50.227236,-49.6815 -50.972676,-49.9161 -0.79561,-0.2502 -7.43143,13.0965 -11.35095,22.8235 -1.35186,3.3547 -2.78295,6.1277 -3.18239,6.1619 -0.8134,0.072 -2.42373,-5.2229 -3.39365,-11.1557 -0.35409,-2.1686 -0.74757,-3.9358 -0.87294,-3.9283 -0.12483,0.013 -1.56225,-6.561 -3.19102,-14.5959 -5.65864,-27.9009 -5.14983,-26.6953 -15.69891,-37.1428 -5.16628,-5.1185 -26.9295,-26.5765 -48.36129,-47.6871 -21.43179,-21.1105 -39.72947,-39.3067 -40.66258,-40.4352 -2.74494,-3.3211 -304.67847,14.7761 -304.46497,18.2495 0.077,1.2462 -0.3164,2.2953 -0.8737,2.3286 -0.5565,0.03 -1.2515,1.9921 -1.5432,4.3555 -0.2905,2.3636 -1.0956,5.8664 -1.7876,7.7846 -0.6908,1.9184 -2.7652,9.2073 -4.6072,16.1989 -7.5296,28.5638 -20.2493,75.2869 -21.0901,77.4643 -0.4944,1.2807 -1.3663,4.4035 -1.9378,6.9407 -0.5705,2.5359 -1.6083,6.1798 -2.3049,8.0982 -0.6965,1.9185 -1.728,6.2038 -2.2916,9.5242 -0.5623,3.319 -1.4676,6.3466 -2.0093,6.727 -0.5428,0.3805 -0.9263,1.68 -0.8518,2.8913 0.074,1.2104 -0.3776,2.2301 -1.0046,2.2676 -1.623,0.097 -1.0193,-12.9323 0.8445,-18.25 0.6132,-1.7472 1.8735,-9.2521 5.497,-32.7437 1.0717,-6.9458 2.2219,-13.4127 2.5563,-14.3723 0.3348,-0.9571 0.9559,-5.089 1.3815,-9.181 0.4257,-4.0914 1.1804,-8.4873 1.6772,-9.7669 0.4977,-1.2816 1.6525,-7.7485 2.5666,-14.3721 2.9127,-21.0974 4.4119,-30.3732 5.1079,-31.5933 0.3729,-0.6519 0.8852,-3.2412 1.1391,-5.7544 0.2528,-2.5119 0.627,-5.7279 0.8302,-7.1498 l 0.3687,-2.5809 -618.64031,36.9563 c -516.2503,30.8315 -617.598,37.1443 -612.3403,38.0921 3.4653,0.62 7.3852,1.5793 8.7104,2.1276 1.3266,0.5496 6.2952,1.5979 11.042,2.331 4.7466,0.7308 9.182,1.7024 9.8563,2.1544 0.6739,0.45 4.6008,1.2994 8.726,1.8763 4.1253,0.5794 7.7782,1.3836 8.1177,1.7879 0.3394,0.4047 4.9944,1.4484 10.3456,2.3191 11.8883,1.9378 14.8412,4.8998 4.2158,4.2289 -3.7116,-0.2343 -7.2863,-0.7891 -7.9427,-1.2299 -0.6565,-0.4463 -5.5929,-1.1935 -10.9701,-1.6653 -5.3769,-0.4714 -10.3117,-1.1918 -10.9663,-1.6039 -0.6544,-0.4108 -6.8868,-1.3052 -13.8499,-1.9882 -6.9629,-0.6818 -13.196,-1.5874 -13.8512,-2.0107 -0.6552,-0.4229 -5.8476,-1.1459 -11.5383,-1.6045 -5.691,-0.4599 -10.8835,-1.1832 -11.5391,-1.6147 -0.6557,-0.4295 -7.9272,-1.4814 -16.1594,-2.3391 -14.5518,-1.5155 -17.4323,-1.4041 -103.6272,4.0294 l -88.6587,5.5868 12.5463,12.3959 a 86638.361,86126.19 6.0827522 0 1 40.5636,40.1294 c 56.8644,56.2833 82.5761,81.6391 85.0894,83.9115 2.3645,2.1374 4.4566,2.3375 25.1763,2.396 12.4291,0.034 22.6197,0.4272 22.6474,0.8754 0.028,0.4417 7.2529,0.7496 16.0572,0.6785 18.409,-0.148 21.608,1.5546 4.8004,2.5552 -6.3247,0.3767 -11.611,1.1951 -11.9651,1.853 -0.3739,0.6925 -7.974,1.6672 -18.5113,2.3725 -28.4237,1.906 -28.0309,-0.5071 -3.8429,23.607 11.3519,11.3177 21.7408,21.9518 23.0853,23.6315 l 2.4438,3.0533 0.9172,-4.2089 c 0.5041,-2.3137 1.2779,-4.6117 1.7189,-5.1063 0.4408,-0.4956 0.7295,-2.0898 0.6401,-3.5441 -0.3003,-4.8835 1.8912,-2.8249 3.0352,2.8517 0.6223,3.0897 1.5667,5.8515 2.0963,6.1308 0.5315,0.2887 1.8538,4.1594 2.937,8.604 1.9335,7.9275 2.1909,8.3031 12.9948,18.9466 a 3757.2836,3735.073 6.0831641 0 1 18.945,18.7919 c 4.3585,4.3682 13.1393,13.0147 19.5125,19.2152 12.5349,12.1948 92.7625,91.5868 109.4666,108.3256 5.6274,5.6436 13.1047,13.0543 16.6152,16.4715 l 6.3843,6.2136 2.0318,-3.8707 c 1.1182,-2.1296 3.5605,-7.2863 5.428,-11.4627 1.8677,-4.1746 3.6964,-7.8664 4.0623,-8.2049 0.3672,-0.3361 0.9555,-1.7821 1.3104,-3.2103 1.7084,-6.8948 4.6395,0.9974 8.3706,22.5349 1.5018,8.6675 3.2593,17.0097 3.9044,18.5353 0.6464,1.5256 1.6185,5.2031 2.1604,8.1764 1.0749,5.8934 -8.4934,-3.8981 128.2852,131.2935 a 511565.32,508541.25 6.0830703 0 1 178.784,176.8149 c 27.5841,27.3087 30.1014,29.4554 29.8559,25.4636 -0.069,-1.1214 0.3179,-2.5505 0.8604,-3.1793 0.5415,-0.6266 1.6358,-4.505 2.4319,-8.6183 0.7959,-4.1172 1.8033,-8.0134 2.2381,-8.6631 0.4358,-0.6526 1.3065,-3.7756 1.9367,-6.9406 0.6302,-3.1668 1.5009,-6.2904 1.9368,-6.9399 0.4348,-0.649 1.4342,-4.4727 2.2202,-8.4889 0.787,-4.0209 1.8492,-8.179 2.3626,-9.2419 0.5134,-1.0651 5.1532,-17.7968 10.3102,-37.1858 5.1582,-19.3868 9.9664,-36.8201 10.6847,-38.7396 0.7193,-1.9204 1.5674,-5.2975 1.8859,-7.5062 0.3185,-2.2078 0.9388,-4.5459 1.379,-5.2002 0.4405,-0.6513 1.4725,-4.2964 2.2935,-8.0987 0.8209,-3.8022 2.0854,-8.4844 2.8093,-10.4042 0.7252,-1.9208 1.5767,-5.2982 1.8952,-7.5062 0.3184,-2.2093 0.9546,-4.5499 1.4144,-5.203 0.4599,-0.6495 1.4943,-4.5538 2.2972,-8.6682 0.803,-4.1131 1.817,-8.0126 2.2519,-8.6617 0.4356,-0.6541 1.3062,-3.7775 1.9366,-6.9433 0.6304,-3.1618 1.5009,-6.2871 1.9368,-6.9401 0.4346,-0.6533 1.4487,-4.5498 2.2516,-8.6645 0.803,-4.114 1.8171,-8.0135 2.2518,-8.6644 0.4359,-0.6518 1.3066,-3.7752 1.9367,-6.9402 0.63,-3.1685 1.5009,-6.2889 1.9368,-6.9412 0.4346,-0.6508 1.4488,-4.5494 2.2516,-8.6642 0.803,-4.1137 1.8171,-8.0134 2.2519,-8.6637 0.4357,-0.653 1.3065,-3.775 1.9366,-6.9414 0.6303,-3.1654 1.5086,-6.294 1.953,-6.9559 0.4445,-0.6599 1.2764,-3.781 1.8491,-6.9335 0.5725,-3.1543 1.3866,-6.2673 1.81,-6.9183 0.4221,-0.6501 1.4587,-4.2954 2.3048,-8.0988 0.8448,-3.8042 1.8906,-7.4494 2.3218,-8.1001 0.4324,-0.6518 1.301,-3.7742 1.9312,-6.9389 0.6301,-3.1671 1.4666,-6.2901 1.8604,-6.9366 0.3924,-0.6493 1.4156,-4.5487 2.2722,-8.6657 0.8565,-4.1187 1.8944,-8.0187 2.3054,-8.6649 0.4118,-0.6539 1.2332,-3.5183 1.8267,-6.3683 0.5936,-2.8499 1.4678,-6.2311 1.9452,-7.5094 0.4761,-1.2804 1.5449,-5.1826 2.3749,-8.6717 0.8286,-3.4902 2.0952,-7.9169 2.8131,-9.8397 0.7186,-1.9158 1.5451,-5.4212 1.8357,-7.7851 0.2918,-2.3612 0.9287,-4.3206 1.4166,-4.3496 0.4881,-0.026 1.1203,-1.9119 1.406,-4.1859 0.2858,-2.2718 1.0017,-5.5137 1.5912,-7.1999 1.2583,-3.6132 1.186,-3.3551 2.0711,-7.3983 0.71,-3.2436 2.6529,-4.482 2.8179,-1.7983 0.1815,2.9526 -1.5885,15.1164 -2.3695,16.2741 -0.4381,0.6519 -1.2102,5.3047 -1.714,10.3389 -0.5039,5.0352 -1.2623,9.6871 -1.6856,10.3381 -0.4233,0.6506 -1.3539,6.336 -2.0683,12.6354 -0.7145,6.2972 -1.6301,11.9838 -2.0352,12.6325 -0.4051,0.6491 -1.1553,5.0439 -1.6681,9.7665 -0.5127,4.7228 -1.2685,9.1187 -1.6816,9.7693 -0.412,0.6475 -1.3585,6.5926 -2.1029,13.2056 -0.7442,6.6137 -1.6921,12.5547 -2.1052,13.2055 -0.4141,0.651 -1.155,5.0294 -1.6463,9.7292 -0.4923,4.7 -1.2782,9.3541 -1.7472,10.3415 -0.4677,0.9866 -1.5893,7.2128 -2.492,13.8359 -2.7321,20.0339 -4.3772,30.3417 -5.0402,31.579 -0.347,0.6464 -1.0329,4.7813 -1.5239,9.1898 -0.4919,4.4086 -1.1441,8.7982 -1.4501,9.7562 -0.3063,0.9554 -0.4214,2.1907 -0.2557,2.7428 0.1654,0.5526 -0.02,1.8441 -0.4129,2.8675 -0.3922,1.0266 -1.3633,5.998 -2.1578,11.049 -0.7955,5.0531 -2.2595,13.8411 -3.2538,19.5313 -0.9944,5.6886 -2.5027,15.5046 -3.3505,21.8107 -0.8489,6.3068 -1.9269,12.2743 -2.3947,13.2604 -0.4691,0.9872 -1.2547,5.6407 -1.7472,10.3411 -0.4911,4.7008 -1.2321,9.0782 -1.6463,9.7288 -0.4132,0.6484 -1.3609,6.593 -2.1053,13.2058 -0.744,6.6144 -1.6921,12.5554 -2.1052,13.2062 -0.414,0.6509 -1.1472,5.0454 -1.6304,9.7631 -0.483,4.7226 -1.2377,9.1193 -1.6769,9.7706 -0.4381,0.6519 -1.3804,6.5934 -2.0928,13.2042 -0.7124,6.6115 -1.6478,12.5513 -2.0778,13.2054 -0.429,0.6514 -1.2022,5.1749 -1.7155,10.0548 -0.5147,4.8771 -1.2883,8.8933 -1.7213,8.9191 -0.4325,0.021 -1.1455,4.2743 -1.5837,9.4452 -0.4384,5.1693 -1.3423,11.4925 -2.0074,14.053 -0.6663,2.5594 -1.6256,8.2614 -2.1323,12.6704 -0.507,4.4089 -1.3016,8.5677 -1.7661,9.2338 -0.4657,0.669 -1.0292,3.7842 -1.2526,6.9228 l -0.4075,5.708 46.569,46.113 c 25.6126,25.3631 48.8233,48.2966 51.5786,50.9688 2.7564,2.6685 8.85,8.6917 13.5427,13.383 42.797,42.7951 41.8345,42.0814 49.4757,36.6752 1.3736,-0.97 3.0154,-1.4891 3.647,-1.1506 0.633,0.3383 1.1201,0.1323 1.0837,-0.4596 -0.037,-0.5917 1.5823,-1.4849 3.5955,-1.9929 2.013,-0.5063 5.0494,-1.749 6.7454,-2.763 3.1294,-1.8701 6.3793,0.2866 3.6484,2.4231 -0.5622,0.4384 -1.6988,4.8005 -2.5257,9.6957 -0.8274,4.8913 -1.8991,9.1734 -2.3838,9.5128 -0.4849,0.3396 -1.1116,2.4445 -1.3919,4.6782 -0.4941,3.926 -0.021,4.5455 14.0374,18.4153 l 14.5495,14.3534 3.8377,-2.944 c 2.1107,-1.6194 3.9892,-3.3488 4.1736,-3.8464 0.1844,-0.4978 3.2579,-3.6108 6.82981,-6.9181 3.5718,-3.3081 8.7298,-8.2214 11.4639,-10.9191 a 894.92496,889.63464 6.0829098 0 1 10.2574,-9.9267 c 2.9075,-2.7625 11.8467,-11.3725 19.8634,-19.136 8.0168,-7.761 15.5813,-15.048 16.81,-16.2003 5.3476,-4.9941 16.5383,-15.7234 21.0927,-20.2234 a 1032.6744,1026.57 6.0833871 0 1 10.6719,-10.3493 1636.464,1626.7901 6.0829317 0 0 11.3043,-10.9098 c 3.0703,-2.9975 9.5907,-9.2721 14.4892,-13.9431 a 5271.0747,5239.915 6.0830064 0 0 22.6771,-21.8236 c 7.5729,-7.3329 16.3866,-15.791 19.5834,-18.7958 a 671.87578,667.90418 6.0834267 0 0 10.7414,-10.3548 c 2.7109,-2.685 8.0915,-7.8672 11.9572,-11.5111 3.8659,-3.6397 7.3997,-7.2848 7.853,-8.0994 1.0778,-1.932 2.965,-2.0108 3.0807,-0.1297 0.05,0.8136 -36.5547,42.9418 -81.3427,93.619 -79.8016,90.2945 -81.4037,92.2002 -79.8913,95.0311 0.8998,1.684 1.7085,7.0808 1.9384,12.9395 0.2176,5.5295 0.7431,10.3576 1.1676,10.7315 0.4246,0.3739 1.0351,4.9639 1.357,10.199 0.5241,8.5265 0.298,9.9452 -2.1616,13.5926 -2.3947,3.548 -2.5318,4.3134 -1.0638,5.9542 1.3894,1.5549 22.2855,22.2885 38.1217,37.8277 2.1037,2.0641 28.4563,28.1352 58.5606,57.9356 30.1043,29.8003 65.977,65.2856 79.7188,78.8563 13.7406,13.57 40.6153,40.13 59.721,59.0207 a 597019.01,593489.92 6.083462 0 0 68.8425,68.0541 c 18.7568,18.5361 36.2902,35.9111 38.9637,38.6114 2.6725,2.6993 11.7496,11.6647 20.1701,19.9217 8.4205,8.2572 42.3705,41.8094 75.444,74.5609 75.5,74.766 83.4891,82.6663 102.9791,101.8528 a 35936.528,35724.089 6.0829235 0 1 45.1621,44.5892 c 31.4947,31.1474 30.71705,30.5567 43.65966,33.1199 a 956.86494,951.20846 6.0829451 0 1 16.80333,3.5086 c 4.46481,0.9842 11.24554,2.4243 15.06839,3.1999 3.82288,0.7768 8.00518,1.8188 9.29427,2.3176 1.28892,0.4977 5.98441,1.5125 10.43423,2.2532 4.44987,0.7417 9.14535,1.7555 10.43424,2.253 1.28897,0.4977 4.92114,1.2984 8.07037,1.7797 3.15023,0.4802 6.28598,1.2444 6.96809,1.6963 0.68335,0.453 5.40125,1.4973 10.48542,2.3218 5.08417,0.8245 9.77786,1.811 10.43045,2.1917 0.65264,0.3809 4.04705,1.1663 7.54318,1.7451 3.496,0.5779 7.41049,1.4493 8.69866,1.9346 1.28826,0.4852 6.25062,1.6548 11.0275,2.5988 18.43483,3.6423 22.66404,4.5713 24.93176,5.4711 1.28985,0.5115 6.24344,1.5383 11.00787,2.2793 4.76457,0.7423 9.19967,1.7091 9.85586,2.1488 0.65636,0.4412 4.01482,1.2193 7.46442,1.7305 3.44852,0.5113 6.84407,1.3158 7.5458,1.7881 0.70049,0.4724 4.6498,1.3326 8.77508,1.9118 4.12526,0.5789 7.77863,1.3886 8.11844,1.7995 0.33984,0.4109 4.77611,1.3957 9.85836,2.1896 5.0822,0.7928 9.77852,1.8201 10.43604,2.2814 0.65759,0.4625 3.26955,1.0804 5.8042,1.372 2.53475,0.2928 6.18772,1.0967 8.117756,1.7882 1.93004,0.6917 7.41022,1.91 12.17818,2.7079 4.76793,0.7978 9.20557,1.8052 9.86135,2.2382 0.65579,0.4331 4.2773,1.2286 8.04772,1.7662 3.77156,0.5375 7.68419,1.3783 8.69474,1.8689 1.01159,0.4888 6.00706,1.6942 11.10102,2.6786 l 16.78679,3.2397 c 4.13874,0.7979 7.80161,1.7628 8.13963,2.1441 0.33807,0.3818 4.77269,1.3413 9.85502,2.1352 5.0822305,0.7931 9.7783505,1.8178 10.4357205,2.277 0.65745,0.459 4.43882996,1.269 8.40439,1.7983 3.96435,0.5296 7.2312595,1.3246 7.2584695,1.7677 0.0277,0.4419 3.68123,1.2642 8.12003,1.8257 5.21823,0.6607 8.10365,1.5581 8.16401,2.5396 0.0997,1.6229 -5.68852,2.5009 -7.26963,1.1038 -0.49832,-0.4401 -6.95797,-1.5501 -14.3564795,-2.469 -7.39842004,-0.9176 -18.6484205,-2.4646 -25.0000705,-3.4378 -6.35165,-0.9732 -16.21605,-2.3296 -21.9208,-3.015 -5.70482,-0.6852 -10.64705,-1.5263 -10.98263,-1.8678 -0.33564,-0.343 -6.56668,-1.2141 -13.84683,-1.9386 -7.2801,-0.7235 -13.77245,-1.6588 -14.42735,-2.0779 -0.65497,-0.4182 -5.84756,-1.1465 -11.53924,-1.6186 -5.69162,-0.4709 -10.625526,-1.1771 -10.964146,-1.5675 -0.33863,-0.392 -6.31171,-1.2543 -13.27362,-1.9193 -6.96188,-0.6638 -13.44691,-1.48 -14.41114,-1.8128 -2.09561,-0.7237 -17.70954,-2.9914 -35.20538,-5.112 -6.97306,-0.8451 -13.46707,-1.8087 -14.43145,-2.1429 -0.96424,-0.3335 -6.42569,-1.247 -12.13661,-2.0316 -19.16083,-2.6314 -32.3046,-4.5219 -32.89408,-4.7312 -0.32156,-0.1141 -1.50676,-0.055 -2.63452,0.1303 -1.12687,0.1848 -2.68968,-0.1124 -3.47274,-0.6636 -0.78198,-0.5504 -5.95144,-1.3856 -11.4852,-1.857 -5.53504,-0.4725 -10.08289,-1.1889 -10.10765,-1.5924 -0.0243,-0.4036 -4.82961,-1.1127 -10.67865,-1.5756 -5.84899,-0.4638 -11.16991,-1.1936 -11.82552,-1.6242 -0.65564,-0.4296 -6.89036,-1.3619 -13.85506,-2.0711 -6.96461,-0.7094 -13.17629,-1.6941 -13.80489,-2.1869 -1.27769,-1.0032 -7.54743,-0.8846 -7.48426,0.142 0.0223,0.3629 8.97858,9.4261 19.90339,20.1423 10.92483,10.7161 24.48994,24.1106 30.14328,29.7652 5.65459,5.6552 34.66696,34.3308 64.47278,63.7234 29.80586,29.3939 57.16012,56.5169 60.78646,60.2749 6.56471,6.8012 6.62145,6.831 12.62824,6.4733 3.3191,-0.1975 6.32095,0.049 6.67288,0.5412 0.35187,0.4956 11.75014,0.918 25.331436,0.9386 13.5814,0.02 24.98833,0.455 25.35026,0.9647 0.36193,0.5097 3.96065,0.7298 7.99895,0.4895 4.03836,-0.2404 7.36796,-0.01 7.40031,0.5194 0.0636,1.0315 -26.83002,4.0497 -46.53486,5.2228 -6.671256,0.3972 -12.586566,1.218 -13.147676,1.8234 -0.5598,0.6067 -2.16999,1.3417 -3.57623,1.6348 -2.21376,0.4615 0.50609,3.58 20.307046,23.2837 20.56242,20.4602 22.94677,22.4929 23.68327,20.2014 0.45037,-1.4018 1.22404,-3.4612 1.72057,-4.577 0.49542,-1.1158 0.83826,-3.0563 0.76113,-4.311 -0.2697,-4.3868 1.89015,-2.3576 2.99878,2.8166 0.61459,2.8708 1.64713,6.0077 2.29446,6.9722 0.64617,0.9649 1.99784,4.64 3.00182,8.1691 1.78704,6.2736 2.84508,7.4243 47.48128,51.59 25.11028,24.8429 46.9254,46.4569 48.47828,48.0287 25.11125,25.3973 47.19979,46.2294 48.67869,45.9094 0.9935,-0.215 401.941314,-24.4697 890.994094,-53.8979"
     fill-rule="evenodd"
     id="path10-6"
     style="stroke-width:1.13871" />
</svg>
